<?xml version="1.0" encoding="utf-8"?>
<!-- Generator: Adobe Illustrator 27.5.0, SVG Export Plug-In . SVG Version: 6.00 Build 0)  -->
<svg version="1.1" xmlns="http://www.w3.org/2000/svg" xmlns:xlink="http://www.w3.org/1999/xlink" x="0px" y="0px"
	 viewBox="0 0 800 800" style="enable-background:new 0 0 800 800;" xml:space="preserve">
<g id="Swallow_x5F_4">
	<g>
		<path d="M265.526,691.952c0,0-12.701,22.065-36.221,20.902c-23.52-1.164-67.568-25.429-75.816-28.835
			c-8.248-3.406-32.429-21.672-43.479-24.307c-11.05-2.633-37.911-18.419-37.911-18.419s27.06,10.628,36.323,12.246
			c9.263,1.619,23.483,8.597,23.483,8.597l-5.568-5.886c0,0,6.988,1.783,18.12,5.554c11.132,3.773,11.132,3.773,11.132,3.773
			l-3.171-4.346c0,0,8.571-0.045,16.128,1.695c7.557,1.742,14.058,4.704,14.058,4.704l-5.569-5.887c0,0,5.687-0.41,14.826-0.497
			c9.14-0.085,29.488-3.267,31.276-2.253c1.788,1.016-8.58-15.957-11.751-20.304c-3.171-4.343-31.137-35.483-40.323-43.966
			c-9.185-8.484-55.444-63.456-64.604-95.38c0,0,21.188,40.202,35.209,52.338c14.022,12.139,28.857,27.647,34.913,32.355
			c6.055,4.709,16.419,13.679,20.687,17.373c4.267,3.694,4.43,5.968,7.843,5.723c3.412-0.246-0.819-11.373-0.456-14.258
			c0.363-2.886-2.581-35.825-4.983-45.37c-2.403-9.545-11.239-44.92-13.355-50.483c-2.115-5.563-10.455-26.112-10.455-26.112
			s12.442,21.969,16.551,31.389c4.108,9.423,16.808,50.807,17.991,59.297c1.183,8.488,4.568,31.681,5.547,37.326
			c0.979,5.646,3.463,16.328,6.593,20.104c3.13,3.775,6.341,8.688,10.568,11.814c4.227,3.125,15.687,11.444,15.687,11.444
			l7.515,1.175c0,0-3.954-23.151-4-31.723l3.617,2.596c0,0,0.482-9.179,0.682-14.339c0.2-5.157,1.01-9.79,1.01-9.79l4.026,8.286
			c0,0-1.388-11.333-3.181-20.351c-1.792-9.016-4.036-24.288-4.036-24.288l4.432,5.969c0,0-7.525-17.179-9.477-20.468
			c-1.952-3.288-17.203-32.486-21.552-37.316c0,0,15.364,14.897,26.383,32.968c11.019,18.068,16.961,37.077,22.817,46.942
			c5.855,9.868,17.976,35.288,19.2,44.347c1.224,9.058,3.75,20.308,2.208,22.706c-1.542,2.398-10.232,8.739-10.232,8.739
			l3.617,2.598c0,0,11.619,2.593,11.906,6.572c0.287,3.98,2.243,15.273,2.243,15.273l5.165,8.201c0,0-8.776-2.797-11.01-2.064
			c-2.233,0.732-11.573,5.978-17.383,4.682C276.94,691.703,265.526,691.952,265.526,691.952z"/>
		
			<radialGradient id="SVGID_1_" cx="-97.0361" cy="844.0928" r="20.8511" gradientTransform="matrix(0.9258 -0.0667 0.0667 0.9258 233.875 -228.8761)" gradientUnits="userSpaceOnUse">
			<stop  offset="0" style="stop-color:#353A4C"/>
			<stop  offset="1" style="stop-color:#14161D"/>
		</radialGradient>
		<path style="fill:url(#SVGID_1_);" d="M204.656,592.875c-0.279,2.215,2.147,9.288,1.745,12.565
			c1.455-1.184,2.597-2.637,2.688-3.928c0.188-2.681-2.24-31.087-2.189-35.664c0.052-4.578-7.003-28.458-7.003-28.458
			s-7.909-29.394-11.816-34.634c3.379,11.945,9.63,36.956,11.591,44.749C202.075,557.05,205.02,589.989,204.656,592.875z"/>
		
			<radialGradient id="SVGID_00000046312558417673347380000013739242242215241910_" cx="-128.5664" cy="859.2452" r="20.1017" gradientTransform="matrix(0.9258 -0.0667 0.0667 0.9258 233.875 -228.8761)" gradientUnits="userSpaceOnUse">
			<stop  offset="0" style="stop-color:#353A4C"/>
			<stop  offset="1" style="stop-color:#14161D"/>
		</radialGradient>
		<path style="fill:url(#SVGID_00000046312558417673347380000013739242242215241910_);" d="M197.269,601.41
			c-4.268-3.694-14.632-12.664-20.687-17.373c-6.056-4.707-20.891-20.216-34.913-32.355c-2.498-2.161-5.224-5.223-8.016-8.778
			c6.369,8.732,13.724,18.208,19.168,23.41c11.868,11.34,24.087,22.271,28.64,27.279c4.553,5.009,17.423,14.37,20.076,14.179
			c0.669-0.048,1.466-0.3,2.291-0.693C201.574,606.692,200.924,604.575,197.269,601.41z"/>
		
			<radialGradient id="SVGID_00000152956574934128906040000017799800540736561832_" cx="-72.7993" cy="831.042" r="55.6959" gradientTransform="matrix(0.9258 -0.0667 0.0667 0.9258 233.875 -228.8761)" gradientUnits="userSpaceOnUse">
			<stop  offset="0" style="stop-color:#353A4C"/>
			<stop  offset="1" style="stop-color:#14161D"/>
		</radialGradient>
		<path style="fill:url(#SVGID_00000152956574934128906040000017799800540736561832_);" d="M124.185,529.509
			c-1.342-2.06-2.656-4.134-3.925-6.182l-0.259,0.003C120.001,523.33,121.611,525.762,124.185,529.509z"/>
		
			<radialGradient id="SVGID_00000028287032722926779380000016770563526079093919_" cx="-124.8813" cy="935.4063" r="51.6979" gradientTransform="matrix(0.9258 -0.0667 0.0667 0.9258 233.875 -228.8761)" gradientUnits="userSpaceOnUse">
			<stop  offset="0" style="stop-color:#353A4C"/>
			<stop  offset="1" style="stop-color:#14161D"/>
		</radialGradient>
		<path style="fill:url(#SVGID_00000028287032722926779380000016770563526079093919_);" d="M110.632,657.764
			c4.225,0.458,13.815,6.626,16.199,7.98c2.384,1.352,31.151,14.521,37.463,17.497c6.312,2.975,36.162,15.305,45.507,18.061
			c9.344,2.757,23.022,7.487,30.249,2.014c7.228-5.476,16.784-10.357,15.076-12.9c-1.707-2.544-12.622-5.95-15.874-8.764
			c-3.142-2.72-15.916-20.74-22.665-22.572c-7.226,0.635-18.54,2.109-24.726,2.167c-9.14,0.087-14.826,0.497-14.826,0.497
			l5.569,5.887c0,0-6.501-2.962-14.058-4.704c-7.556-1.74-16.128-1.695-16.128-1.695l3.171,4.346c0,0,0,0-11.132-3.773
			c-11.132-3.771-18.12-5.554-18.12-5.554l5.568,5.886c0,0-14.22-6.978-23.483-8.597c-4.437-0.774-12.958-3.619-20.632-6.369
			l-0.021,0.046C87.769,647.217,106.407,657.305,110.632,657.764z"/>
		
			<radialGradient id="SVGID_00000158741838326422339460000010715127510563884467_" cx="-47.8984" cy="888.7256" r="43.6814" gradientTransform="matrix(0.9258 -0.0667 0.0667 0.9258 233.875 -228.8761)" gradientUnits="userSpaceOnUse">
			<stop  offset="0" style="stop-color:#353A4C"/>
			<stop  offset="1" style="stop-color:#14161D"/>
		</radialGradient>
		<path style="fill:url(#SVGID_00000158741838326422339460000010715127510563884467_);" d="M274.165,647.887
			c4.686,1.567,11.811,5.246,13.65,4.352c1.841-0.893,3.676-12.459,3.485-15.112c-0.191-2.653-5.735-31.978-7.469-34.902
			c-1.71-2.882-34.837-81.707-49.339-89.842c6.029,10.399,13.562,24.724,14.895,26.969c1.952,3.289,9.477,20.468,9.477,20.468
			l-4.432-5.969c0,0,2.244,15.272,4.036,24.288c1.793,9.018,3.181,20.351,3.181,20.351l-4.026-8.286c0,0-0.81,4.633-1.01,9.79
			c-0.199,5.16-0.682,14.339-0.682,14.339l-3.617-2.596c0.039,7.286,2.903,25.105,3.76,30.283l0.592,1.031
			C256.667,643.05,269.479,646.32,274.165,647.887z"/>
		
			<radialGradient id="SVGID_00000022554500574331177560000008848789221565761205_" cx="-42.5771" cy="925.5772" r="31.4664" gradientTransform="matrix(0.9258 -0.0667 0.0667 0.9258 233.875 -228.8761)" gradientUnits="userSpaceOnUse">
			<stop  offset="0" style="stop-color:#353A4C"/>
			<stop  offset="1" style="stop-color:#14161D"/>
		</radialGradient>
		<path style="fill:url(#SVGID_00000022554500574331177560000008848789221565761205_);" d="M268.181,649.463
			c-7.718-1.35-16.656-3.755-20.584-5.378c-3.928-1.621-12.924-10.119-14.901-11.12c-1.977-1.001-6.824,0.49-7.473,2.062
			c-0.649,1.571,1.903,10.534,3.204,12.727c1.301,2.192,8.701,14.998,13.09,17.73c4.389,2.732,18.013,6.703,20.694,6.893
			c2.681,0.189,6.227-3.497,7.579-5.881c1.353-2.384,8.443-9.754,11.097-9.944C280.886,656.551,275.899,650.812,268.181,649.463z"/>
		
			<radialGradient id="SVGID_00000119828973112345533360000011833599366547033022_" cx="4.1035" cy="952.6026" r="24.9118" gradientTransform="matrix(0.9258 -0.0667 0.0667 0.9258 233.875 -228.8761)" gradientUnits="userSpaceOnUse">
			<stop  offset="0" style="stop-color:#353A4C"/>
			<stop  offset="1" style="stop-color:#14161D"/>
		</radialGradient>
		<path style="fill:url(#SVGID_00000119828973112345533360000011833599366547033022_);" d="M301.717,665.338
			c-2.385-1.352-10.158-3.46-12.46-3.676c0,0-7.23,0.14-9.775,1.849c-2.545,1.708-6.903,4.689-5.629,6.502
			c1.274,1.814,11.052,5.301,12.162,4.841c1.111-0.462,2.49-2.466,3.737-1.032c1.247,1.434,3.361,4.331,4.959,5.358
			c1.598,1.028,4.795,3.085,4.795,3.085l4.142-0.679C303.649,681.586,304.1,666.69,301.717,665.338z"/>
		
			<radialGradient id="SVGID_00000106851184318452423250000005905071506478684339_" cx="-124.8823" cy="935.4063" r="51.6979" gradientTransform="matrix(0.9258 -0.0667 0.0667 0.9258 233.875 -228.8761)" gradientUnits="userSpaceOnUse">
			<stop  offset="0" style="stop-color:#535885"/>
			<stop  offset="1" style="stop-color:#14161D"/>
		</radialGradient>
		<path style="fill:url(#SVGID_00000106851184318452423250000005905071506478684339_);" d="M188.303,683.047
			c0.667,0.267,1.26,0.482,1.745,0.626C190.047,683.673,189.424,683.452,188.303,683.047z M188.303,683.047
			c-8.977-3.587-32.997-17.45-32.997-17.45l-0.249-0.202c-0.93-0.315-3.492-1.183-10.599-3.59
			c-11.132-3.771-18.12-5.554-18.12-5.554l0.682,0.721C140.263,665.523,179.552,679.893,188.303,683.047z M152.889,661.233
			l0.424,0.507c0,0,37.444,19.88,63.161,27.744c0,0-34.512-15.793-48.234-26.622C161.799,661.422,154.73,661.252,152.889,661.233z
			 M185.802,661.359c-4.167,0.116-7.037,0.275-8.193,0.348c0.098,0.071,21.494,15.908,48.105,25.111
			C225.714,686.818,194.967,671.666,185.802,661.359z M207.839,659.964c-3.241,0.342-6.583,0.688-9.609,0.935
			c3.622,3.126,16.043,13.617,24.331,17.859C222.561,678.758,211.062,664.886,207.839,659.964z M216.277,659.109
			c-0.97,0.087-2.009,0.188-3.095,0.297l7.402,7.775L216.277,659.109z M109.892,653.834c-0.5-0.108-0.993-0.211-1.47-0.294
			c-4.437-0.774-12.958-3.619-20.632-6.369l-0.021,0.046c0,0,18.638,10.088,22.863,10.547c4.225,0.458,13.815,6.626,16.199,7.98
			c2.384,1.352,31.151,14.521,37.463,17.497c5.863,2.764,32.029,13.595,43.21,17.331c-20.806-8.476-75.68-34.862-81.894-38.553
			C121.802,659.757,115.106,656.389,109.892,653.834z"/>
		
			<radialGradient id="SVGID_00000049221969619550854960000009186503630584054428_" cx="-47.8989" cy="888.7256" r="43.6816" gradientTransform="matrix(0.9258 -0.0667 0.0667 0.9258 233.875 -228.8761)" gradientUnits="userSpaceOnUse">
			<stop  offset="0" style="stop-color:#535885"/>
			<stop  offset="1" style="stop-color:#14161D"/>
		</radialGradient>
		<path style="fill:url(#SVGID_00000049221969619550854960000009186503630584054428_);" d="M250.031,540.537
			c5.276,7.117,13.667,20.052,21.397,38.954c9.095,22.239,13.99,32.502,16.862,41.01c-1.663-8.263-3.565-16.771-4.459-18.277
			c-1.71-2.882-34.837-81.707-49.339-89.842c6.029,10.399,13.562,24.724,14.895,26.969
			C249.561,539.643,249.78,540.049,250.031,540.537z M257.905,575.176c10.843,11.133,21.627,37.456,21.627,37.456
			c-8.449-25-21.353-50.085-24.766-56.555C255.364,560.026,256.672,568.488,257.905,575.176z M261.553,597.709
			c0.064,0.501,0.098,0.779,0.098,0.779l-4.026-8.286c0,0-0.81,4.633-1.01,9.79c-0.02,0.518-0.043,1.082-0.068,1.667
			c8.387,5.863,20.68,26.574,20.68,26.574c-4.904-16.51-15.617-30.314-15.617-30.314L261.553,597.709z M255.364,614.372
			l-0.163-0.564l-2.886-2.073c0.013,2.458,0.348,6.112,0.818,10.076c6.752,0.889,20.765,11.805,20.765,11.805
			C266.803,622.408,255.364,614.372,255.364,614.372z M254.436,631.517c0.298,2.037,0.592,3.965,0.858,5.652
			c2.802-0.249,9.122-0.298,9.122-0.298c-2.093-1.277-9.814-5.295-9.814-5.295L254.436,631.517z"/>
		
			<linearGradient id="SVGID_00000118393520768017058030000005743220269869607047_" gradientUnits="userSpaceOnUse" x1="276.7782" y1="722.0137" x2="277.9183" y2="709.0927" gradientTransform="matrix(0.9974 -0.0719 0.0719 0.9974 -47.45 -6.6925)">
			<stop  offset="0" style="stop-color:#C73256"/>
			<stop  offset="1" style="stop-color:#970330"/>
		</linearGradient>
		<path style="fill:url(#SVGID_00000118393520768017058030000005743220269869607047_);" d="M282.749,692.998
			c4.694,1.047,11.686-2.173,15.38-3.836c-1.941-0.028-4.3-0.009-6.499,0.149c-4.929,0.355-10.943-3.785-12.327-7.116
			c-1.383-3.329-14.354-3.539-15.437-2.698c-1,0.775-1.526,8.013,1.643,12.484c0.005-0.008,0.017-0.029,0.017-0.029
			S276.94,691.703,282.749,692.998z"/>
		<path style="fill:#A896B8;" d="M222.196,645.916c0,0-14.513-18.961-21.26-25.335c-5.108-4.825-19.577-16.836-26.305-22.387
			c11.352,11.407,33.925,36.619,36.756,40.496c2.642,3.622,10.275,16.001,11.715,19.445c2.819,0.859,7.716,4.307,7.716,4.307
			L222.196,645.916z"/>
	</g>
</g>
<g id="Swallow_x5F_3">
	<g>
		<path d="M131.106,291.962l4.374,7.379c0,0,4.629,4.397,8.022,5.688c3.394,1.289,9.132,10.287,9.132,10.287
			s1.713-8.361,2.877-10.264c1.164-1.904,10.033-6.15,10.172-13.646c0,0,9.24-2.716,15.16-1.71
			c5.919,1.004,34.559-12.066,49.257-31.832c14.698-19.766,41.828-44.476,46.37-80.122c0,0-6.736,14.441-10.099,18.656
			c-3.362,4.218-13.069,12.397-14.316,15.295c-1.248,2.895-1.109-4.6-1.109-4.6s-3.616,7.198-10.087,12.652
			c-6.471,5.453-17.922,16.488-17.922,16.488l3.121-7.241c0,0-7.054,6.405-15.299,9.205c-8.246,2.799-24.599,0.904-24.599,0.904
			s-6.714,2.432-9.04,6.235c0,0-0.716-15.075,0.501-23.478c1.217-8.403,6.918-22.432,12.479-28.963
			c5.561-6.532,75.145-77.169,127.286-101.747c0,0-33.367,15.67-52.481,28.554c-19.115,12.883-31.971,22.797-36.074,23.948
			c-4.102,1.151-43.476,40.332-51.626,36.135c-8.149-4.198,0.579-41.989,21.25-67.251c0,0,9.178-13.731,12.795-20.928
			c3.616-7.2,32.46-40.271,32.46-40.271s-25.766,26.328-44.069,47.289c-18.303,20.959-32.727,49.256-35.762,55.503
			c-3.035,6.247-4.244,32.167-7.037,41.438c-2.793,9.269-13.844,27.345-18.781,32.429c-4.938,5.084-11.546,18.033-11.389,22.05
			c0,0-8.266-8.712-10.168-9.877c-1.903-1.162-22.516-5.922-27.357-7.837c-4.841-1.914-13.275-8.639-13.275-8.639l1.151,4.102
			c0,0-5.582-4.981-13.403-7.148c-7.821-2.169-37.143-22.186-40.066-52.462c0,0-1.282,20.908,8.45,41.758
			c9.732,20.849,27.572,46.392,46.144,57.484c18.572,11.092,25.485,12.182,34.671,15.968
			C122.004,287.18,131.106,291.962,131.106,291.962z"/>
		
			<radialGradient id="SVGID_00000025423542112991152600000012997441799181096327_" cx="-172.4395" cy="349.5083" r="44.8913" gradientTransform="matrix(1.2134 0.1035 -0.1035 1.2134 335.3593 -195.4154)" gradientUnits="userSpaceOnUse">
			<stop  offset="0" style="stop-color:#353A4C"/>
			<stop  offset="1" style="stop-color:#14161D"/>
		</radialGradient>
		<path style="fill:url(#SVGID_00000025423542112991152600000012997441799181096327_);" d="M91.616,267.948
			c11.915,5.521,35.651,17.679,37.546,17.465c1.895-0.213,4.084-8.284,3.998-11.669c-0.087-3.386-7.655-24.674-7.655-24.674
			l-0.034-0.281c-2.36-2.451-7.513-7.731-8.965-8.62c-1.903-1.162-22.516-5.922-27.357-7.837
			c-4.841-1.914-13.275-8.639-13.275-8.639l1.151,4.102c0,0-5.582-4.981-13.403-7.148c-6.171-1.712-25.714-14.537-35.128-34.74
			C33.004,223.345,79.731,262.442,91.616,267.948z"/>
		
			<radialGradient id="SVGID_00000165924419405591031650000017550183476088307337_" cx="-69.2573" cy="342.9566" r="34.7052" gradientTransform="matrix(1.2134 0.1035 -0.1035 1.2134 335.3593 -195.4154)" gradientUnits="userSpaceOnUse">
			<stop  offset="0" style="stop-color:#353A4C"/>
			<stop  offset="1" style="stop-color:#14161D"/>
		</radialGradient>
		<path style="fill:url(#SVGID_00000165924419405591031650000017550183476088307337_);" d="M181.838,283.9
			c2.704-0.895,27.814-9.263,39.115-22.938c11.3-13.675,25.368-28.99,31.221-35.996c5.55-6.647,19.024-27.127,18.744-36.087
			c-1.637,3.068-3.318,5.978-4.547,7.52c-3.362,4.218-13.069,12.397-14.316,15.295c-1.248,2.895-1.109-4.6-1.109-4.6
			s-3.616,7.198-10.087,12.652c-6.471,5.453-17.922,16.488-17.922,16.488l3.121-7.241c0,0-7.054,6.405-15.299,9.205
			c-8.246,2.799-24.599,0.904-24.599,0.904s-1.531,0.558-3.381,1.549c-2.35,3.837-6.886,11.402-8.277,14.849
			c-1.903,4.717-9.073,18.368-10.786,20.85c-1.357,1.964,1.476,9.925,2.759,14.839c1.846-0.488,6.652-1.641,11.004-1.709
			C178.134,287.942,179.768,284.586,181.838,283.9z"/>
		
			<radialGradient id="SVGID_00000061443216260265094920000001769228627862921612_" cx="-92.5967" cy="360.5645" r="30.3685" gradientTransform="matrix(1.2134 0.1035 -0.1035 1.2134 335.3593 -195.4154)" gradientUnits="userSpaceOnUse">
			<stop  offset="0" style="stop-color:#353A4C"/>
			<stop  offset="1" style="stop-color:#14161D"/>
		</radialGradient>
		<path style="fill:url(#SVGID_00000061443216260265094920000001769228627862921612_);" d="M176.657,217.024
			c0.818-5.185-1.497-13.265-1.583-16.651c-0.086-3.385-9.062-3.775-12.701-0.708c-3.639,3.069-14.903,29.508-21.85,40.551
			c-6.947,11.043-0.188,33.015-0.188,33.015s4.972-1.078,12.797-0.411c7.825,0.668,6.216-2.473,9.951-6.658
			c3.36-3.765,12.241-18.897,13.992-21.899c-0.121-3.211-0.406-12.947,0.267-20.017
			C176.738,221.896,176.309,219.226,176.657,217.024z"/>
		
			<radialGradient id="SVGID_00000114062671374390929200000005825874547364965517_" cx="-103.2422" cy="383.4917" r="25.2944" gradientTransform="matrix(1.2134 0.1035 -0.1035 1.2134 335.3593 -195.4154)" gradientUnits="userSpaceOnUse">
			<stop  offset="0" style="stop-color:#353A4C"/>
			<stop  offset="1" style="stop-color:#14161D"/>
		</radialGradient>
		<path style="fill:url(#SVGID_00000114062671374390929200000005825874547364965517_);" d="M148.992,277.346
			c-3.758,0.055-8.983,4.112-8.983,4.112c-2.926,3.504-0.858,10.061,0.283,14.288c1.141,4.226,7.19,8.12,7.19,8.12
			c2.768-1.641,6.43-0.579,6.43-0.579s4.385-3.003,6.438-5.081c2.054-2.076,2.776-6.144,2.349-9.934
			c-0.428-3.789-4.081-9.355-4.081-9.355S152.75,277.29,148.992,277.346z"/>
		
			<radialGradient id="SVGID_00000044859523966813968270000017307902187622604466_" cx="-91.3682" cy="281.129" r="18.4032" gradientTransform="matrix(1.2134 0.1035 -0.1035 1.2134 335.3593 -195.4154)" gradientUnits="userSpaceOnUse">
			<stop  offset="0" style="stop-color:#353A4C"/>
			<stop  offset="1" style="stop-color:#14161D"/>
		</radialGradient>
		<path style="fill:url(#SVGID_00000044859523966813968270000017307902187622604466_);" d="M167.896,170.109
			c-0.072,5.249,9.98,10.61,9.98,10.61s0.22-0.253,0.565-0.654c-0.459-0.027-0.887-0.099-1.236-0.279
			c-8.149-4.198,0.579-41.989,21.25-67.251c0,0,9.178-13.731,12.795-20.928c0.822-1.636,2.953-4.615,5.746-8.232
			c-8.206,9.01-26.649,29.81-35.321,43.994C170.335,145.92,167.969,164.86,167.896,170.109z"/>
		
			<radialGradient id="SVGID_00000119802900721010842220000005984260950420507547_" cx="-66.8003" cy="277.8536" r="19.2273" gradientTransform="matrix(1.2134 0.1035 -0.1035 1.2134 335.3593 -195.4154)" gradientUnits="userSpaceOnUse">
			<stop  offset="0" style="stop-color:#353A4C"/>
			<stop  offset="1" style="stop-color:#14161D"/>
		</radialGradient>
		<path style="fill:url(#SVGID_00000119802900721010842220000005984260950420507547_);" d="M205.628,172.2
			c11.196-8.052,31.553-31.088,43.867-39.047c8.98-5.802,23.825-17.285,31.21-23.082c-5.653,3.198-11.149,6.498-15.8,9.632
			c-19.115,12.883-31.971,22.797-36.074,23.948c-3.205,0.9-27.936,25.009-42.49,33.513l-0.727,0.837
			C185.615,178.002,194.432,180.254,205.628,172.2z"/>
		
			<radialGradient id="SVGID_00000100370532644796732860000017848232386954400181_" cx="-172.4395" cy="349.5083" r="44.8914" gradientTransform="matrix(1.2134 0.1035 -0.1035 1.2134 335.3593 -195.4154)" gradientUnits="userSpaceOnUse">
			<stop  offset="0" style="stop-color:#535885"/>
			<stop  offset="1" style="stop-color:#14161D"/>
		</radialGradient>
		<path style="fill:url(#SVGID_00000100370532644796732860000017848232386954400181_);" d="M28.492,185.906
			c1.879,15.581,11.074,31.441,22.021,45.056c-5.22-8.301-14.064-23.609-16.832-36.008C31.765,192.127,29.99,189.122,28.492,185.906
			z M52.065,214.066c4.985,14.662,16.269,32.004,16.269,32.004c-4.694-7.95-7.139-17.839-8.379-26.982
			C57.738,217.946,55.03,216.272,52.065,214.066z M70.242,223.289c0.441,5.781,2.51,20.27,12.203,33.367
			c0,0-6.943-16.589-5.775-29.162C75.833,226.803,73.523,225,70.242,223.289z M93.112,233.608c-1.594-0.462-2.909-0.875-3.787-1.211
			c-0.513,4.498-1.486,19.039,5.186,32.42C94.51,264.817,90.466,244.369,93.112,233.608z M110.104,238.171
			c-1.722-0.468-3.657-0.978-5.65-1.501c0.114,2.259,1.039,17.969,4.97,24.915C109.424,261.585,107.735,244.153,110.104,238.171z
			 M122.381,245.623c-1.287-1.3-2.651-2.646-3.78-3.694l-0.009,0.17l4.5,17.65C123.092,259.748,122.832,249.59,122.381,245.623z"/>
		
			<radialGradient id="SVGID_00000047052986318356991250000009518263419791300281_" cx="-69.2578" cy="342.9566" r="34.7055" gradientTransform="matrix(1.2134 0.1035 -0.1035 1.2134 335.3593 -195.4154)" gradientUnits="userSpaceOnUse">
			<stop  offset="0" style="stop-color:#535885"/>
			<stop  offset="1" style="stop-color:#14161D"/>
		</radialGradient>
		<path style="fill:url(#SVGID_00000047052986318356991250000009518263419791300281_);" d="M182.691,260.702
			c0,0,7.284-14.248,10.182-21.091c-1.313-0.062-2.502-0.139-3.504-0.214L182.691,260.702z M202.633,239.578
			c-1.485,3.693-7.859,19.354-11.722,25.954c0,0,12.234-15.064,16.917-26.585C206.21,239.257,204.443,239.459,202.633,239.578z
			 M222.936,236.234l3.121-7.241c0,0-3.418,3.099-8.272,5.929c-2.854,7.376-10.62,26.254-18.153,33.981
			c0,0,13.548-10.455,23.754-33.102C223.104,236.072,222.936,236.234,222.936,236.234z M240.858,219.746
			c-1.463,1.233-3.186,2.758-4.968,4.369c-3.7,7.783-11.555,23.759-17.536,32.122c0,0,16.573-21.487,22.689-36.655
			C240.981,219.636,240.922,219.693,240.858,219.746z M270.918,188.879c-1.637,3.068-3.318,5.978-4.547,7.52
			c-0.765,0.961-1.867,2.13-3.115,3.391c-2.277,13.271-18.914,30.806-23.65,36.115c-3.046,3.414-10.645,14.157-16.092,21.989
			c10.787-12.834,23.243-26.44,28.661-32.928C257.725,218.319,271.198,197.838,270.918,188.879z"/>
		<path style="fill:#A896B8;" d="M138.114,233.254c6.384-8.84,11.182-16.687,15.671-25.313c3.76-7.223,6.178-23.486,6.421-33.698
			c-1.009,8.257-1.996,16.784-3.363,21.322c-2.793,9.269-13.844,27.345-18.781,32.429c-4.826,4.968-11.231,17.428-11.372,21.741
			l3.428,6.859C130.118,256.595,131.73,242.093,138.114,233.254z"/>
		
			<linearGradient id="SVGID_00000139986072989673197060000017746751138392165815_" gradientUnits="userSpaceOnUse" x1="166.0183" y1="288.3319" x2="170.1323" y2="281.6" gradientTransform="matrix(0.9964 0.085 -0.085 0.9964 -7.0669 -0.7918)">
			<stop  offset="0" style="stop-color:#C73256"/>
			<stop  offset="1" style="stop-color:#970330"/>
		</linearGradient>
		<path style="fill:url(#SVGID_00000139986072989673197060000017746751138392165815_);" d="M136.906,295.833
			c-1.545-3.885-1.401-14.382-1.401-14.382s-3.755,5.586-3.772,11.568l3.748,6.322c0,0,4.301,4.082,7.652,5.53
			C142.407,304.056,138.312,299.369,136.906,295.833z"/>
	</g>
</g>
<g id="Swallow_x5F_2">
	<g>
		<path d="M492.313,241.642c0,0-7.241-25.584-5.979-41.871c1.26-16.288,1.106-50.022,2.841-60.494
			c1.733-10.47,10.558-24.789,14.626-27.703c4.069-2.912,15.471-2.46,15.471-2.46s-8.389-9.995-7.931-17.091
			c0.458-7.096-2.691-14.073-7.231-16.976l-2.912-4.069c0,0,10.471,1.733,13.961,2.312c3.491,0.578,16.051-1.646,23.269,2.417
			c7.216,4.062,12.848,11.928,12.848,11.928s5.639-19.626,10.867-25.216c5.229-5.589,42.099-11.679,63.623-7.399
			c21.525,4.28,100.313,35.252,128.352,39.176c0,0-11.631,0.944-15.819,0.25c-4.188-0.693-18.034-3.702-18.034-3.702l5.703,4.529
			c0,0-11.636-3.359-28.037-3.923c-16.404-0.563-31.756,1.199-42.459,0.862c-10.702-0.337-15.704-0.448-15.704-0.448l4.539,2.903
			l-10.702-0.338l1.747,2.441c0,0-8.722,2.86-13.489,3.506c-4.77,0.644-13.486,7.808-17.846,10.314
			c-4.359,2.506-7.499,4.138-7.499,4.138s15.953,14.116,19.449,18.998c3.495,4.883,21.012,13.878,24.096,14.747
			c3.084,0.87,71.983,30.92,92.119,41.425c20.136,10.506,40.628,27.526,40.628,27.526s-32.538-22.241-41.438-24.79
			c-8.902-2.55-40.787-11.414-50.97-14.893c-10.181-3.477-34.907-10.081-37.987-6.645c-3.078,3.435,18.07,35.983,22.324,42.784
			c4.255,6.801,21.851,34.815,24.996,39.639c3.147,4.823,11.834,23.835,18.298,30.282c0,0-8.91-9.004-14.268-15.629
			c-5.358-6.625-14.801-23.249-21.669-29.407c-6.87-6.158-36.297-53.704-41.131-59.164c-4.832-5.462-28.057-21.142-34.691-24.392
			c-6.635-3.249-30.196-8.225-40.962-12.516c0,0-3.596,8.729-8.305,11.176c-4.708,2.449-15.291,5.717-18.546,8.048l-0.063-3.956
			c0,0-2.787,3.842-5.343,6.289c-2.557,2.445-8.653,11.118-12.198,15.193c-3.543,4.076-8.131,10.13-8.131,10.13l0.923-7.738
			c0,0-4.532,5.707-4.875,9.952c-0.345,4.246-0.044,13.262-1.782,19.429c-1.738,6.166-4.056,13.673-3.761,18.383
			c0.297,4.712,1.181,14.54,1.181,14.54L492.313,241.642z"/>
		<g>
			
				<radialGradient id="SVGID_00000140014763408225474230000017468181995642066340_" cx="193.4795" cy="334.5494" r="33.2919" gradientTransform="matrix(1.1366 0.1882 -0.1882 1.1366 377.5446 -239.0067)" gradientUnits="userSpaceOnUse">
				<stop  offset="0" style="stop-color:#353A4C"/>
				<stop  offset="1" style="stop-color:#14161D"/>
			</radialGradient>
			<path style="fill:url(#SVGID_00000140014763408225474230000017468181995642066340_);" d="M532.159,141.731
				c-3.37,3.028-17.559,4.265-22.038,5.317c-4.477,1.053-6.899,17.865-10.498,24.44c-3.6,6.577-6.887,32.928-7.396,44.677
				c-0.428,9.839,1.432,22.563,2.048,26.446c-0.259-2.946-0.819-9.442-1.045-13.011c-0.295-4.71,2.023-12.217,3.761-18.383
				c1.738-6.167,1.438-15.184,1.782-19.429c0.343-4.246,4.875-9.952,4.875-9.952l-0.923,7.738c0,0,4.588-6.054,8.131-10.13
				c3.545-4.076,9.642-12.748,12.198-15.193c2.556-2.447,5.343-6.289,5.343-6.289l0.063,3.956c3.255-2.331,13.838-5.6,18.546-8.048
				c2.266-1.178,4.268-3.806,5.741-6.218c-4.558-3.063-14.19-7.731-14.19-7.731S535.53,138.702,532.159,141.731z"/>
			
				<radialGradient id="SVGID_00000016043176679355844040000014034200722181198236_" cx="280.0786" cy="259.0015" r="29.9887" gradientTransform="matrix(1.1366 0.1882 -0.1882 1.1366 377.5446 -239.0067)" gradientUnits="userSpaceOnUse">
				<stop  offset="0" style="stop-color:#353A4C"/>
				<stop  offset="1" style="stop-color:#14161D"/>
			</radialGradient>
			<path style="fill:url(#SVGID_00000016043176679355844040000014034200722181198236_);" d="M647.647,65.816
				c0,0,0.821,8.025-4.874,12.103c-5.696,4.078-33.901,5.504-38.379,6.558c-4.479,1.052-9.938,8.037-12.783,12.228
				c-2.846,4.191-10.167,9.434-10.167,9.434l14.666,8.883l0.808,0.066c-0.258-0.232-0.402-0.358-0.402-0.358s3.14-1.632,7.499-4.138
				c4.359-2.506,13.076-9.67,17.846-10.314c4.767-0.646,13.489-3.506,13.489-3.506l-1.747-2.441l10.702,0.338l-4.539-2.903
				c0,0,5.002,0.111,15.704,0.448c10.703,0.337,26.055-1.425,42.459-0.862c16.401,0.564,28.037,3.923,28.037,3.923l-5.703-4.529
				c0,0,13.846,3.009,18.034,3.702c1.584,0.262,4.227,0.29,6.908,0.223c-3.818-1.637-24.249-5.984-34.661-8.044
				C699.433,84.428,647.647,65.816,647.647,65.816z"/>
			
				<radialGradient id="SVGID_00000126303320967568914560000007825348430681119646_" cx="318.7773" cy="351.129" r="19.5486" gradientTransform="matrix(1.1366 0.1882 -0.1882 1.1366 377.5446 -239.0067)" gradientUnits="userSpaceOnUse">
				<stop  offset="0" style="stop-color:#353A4C"/>
				<stop  offset="1" style="stop-color:#14161D"/>
			</radialGradient>
			<path style="fill:url(#SVGID_00000126303320967568914560000007825348430681119646_);" d="M664.736,213.881
				c-3.976-6.357-22.709-35.205-22.623-41.75c-0.716,2.104-2.741,8.697-1.721,13.335c1.227,5.581,25.175,42.897,29.483,47.196
				c4.309,4.299,13.393,14.41,15.026,17.547c1.43,2.751,8.541,16.074,14.192,20.465c-3.962-7.026-7.565-14.399-9.362-17.154
				C686.587,248.696,668.991,220.682,664.736,213.881z"/>
			
				<radialGradient id="SVGID_00000036968711977341389420000006758869213263362220_" cx="324.9175" cy="320.417" r="19.7395" gradientTransform="matrix(1.1366 0.1882 -0.1882 1.1366 377.5446 -239.0067)" gradientUnits="userSpaceOnUse">
				<stop  offset="0" style="stop-color:#353A4C"/>
				<stop  offset="1" style="stop-color:#14161D"/>
			</radialGradient>
			<path style="fill:url(#SVGID_00000036968711977341389420000006758869213263362220_);" d="M671.489,166.586
				c-7.505-2.318-20.826-2.012-22.22-0.091c-0.844,1.165-3.205,2.734-4.933,3.792c6.756-1.117,27.073,4.386,36.063,7.456
				c10.183,3.48,42.067,12.343,50.97,14.893c0.191,0.053,0.411,0.13,0.624,0.203c-5.417-3.051-11.793-6.355-15.581-7.341
				C708.849,183.527,678.994,168.903,671.489,166.586z"/>
		</g>
		
			<linearGradient id="SVGID_00000101788556215596757930000010449231601159428525_" gradientUnits="userSpaceOnUse" x1="533.2225" y1="176.0047" x2="544.5429" y2="162.5617" gradientTransform="matrix(0.9866 0.1633 -0.1633 0.9866 19.8089 -161.394)">
			<stop  offset="0" style="stop-color:#C73256"/>
			<stop  offset="1" style="stop-color:#970330"/>
		</linearGradient>
		<path style="fill:url(#SVGID_00000101788556215596757930000010449231601159428525_);" d="M533.769,106.733
			c0,0,9.378-4.662,11.702-7.146c2.324-2.484,3.712-7.992,3.712-7.992c-3.177,1.866-12.326,2.263-14.811-0.062
			c-2.484-2.323-10.092-8.364-11.257-9.991c-1.164-1.627-0.314-3.877-0.314-3.877s-6.203-0.07-6.436,1.326
			c-0.19,1.156-5.263,2.155-7.005,2.466c1.447,3.101,2.221,6.814,1.979,10.567c-0.405,6.291,6.129,14.846,7.619,16.709
			c2.835-0.274,5.193-1.678,5.193-1.678L533.769,106.733z"/>
		<path style="fill:#A896B8;" d="M610.411,56.783c-14.268-0.449-39.24,0.199-46.056,6.722c-6.231,5.958-11.148,25.699-12.3,33.382
			c-2.311-0.955-4.601-0.772-8.913,2.314c-7.593,5.437-19.531,8.242-19.531,8.242l-1.389,5.507c0,0-14.194-0.914-16.983,1.493
			c-2.79,2.407-12.932,17.464-13.228,30.803c-0.106,4.741-0.984,23.268,1.886,23.263c2.87-0.003,9.358-24.748,13.467-26.459
			c4.107-1.712,24.197,1.135,26.588-10.421c0,0,7.295,5.03,13.967,8.047c6.674,3.018,37.003,10.43,40.727,11.046
			c3.725,0.616,14.035-1.023,15.893-3.585c1.859-2.56-9.479-17.826-15.384-25.497c-4.351-5.655-15.693-12.981-23.845-17.623
			c2.382-0.918,12.306-4.781,16.451-7.03c4.729-2.565,6.73-14.664,8.743-18.156c2.012-3.494,49.007-4.322,51.328-9.675
			C644.154,63.802,624.681,57.232,610.411,56.783z"/>
		<path style="fill:#D1C2D9;" d="M535.402,128.641c0,0-7.281-10.171-6.529-12.556c0.754-2.387,8.894-6.06,11.567-7.051
			c2.674-0.991,13.555,2.601,18.095,5.504c4.54,2.903,18.631,15.277,20.844,19.23c2.215,3.953,5.887,9.94,3.561,10.989
			c-2.325,1.05-14.252-0.566-18.091-1.201C561.012,142.921,543.268,139.625,535.402,128.641z"/>
		<path style="fill:#D1C2D9;" d="M517.822,115.69c0,0-9.539-0.863-11.167,0.302c-1.627,1.166-8.188,12.63-8.417,14.026
			c-0.232,1.396-0.689,8.494,0.767,8.375c1.451-0.117,4.702-6.752,6.505-6.811c1.804-0.061,14.476-5.136,14.997-8.277
			C521.027,120.164,517.822,115.69,517.822,115.69z"/>
		<path style="fill:#D1C2D9;" d="M557.283,87.436c0,0,3.819-18.732,9.109-22.519c5.286-3.787,27.677-6.895,28.9-5.615
			c1.222,1.278-8.254,4.371-10.639,5.77c-2.383,1.398-10.402,8.677-11.27,11.762c-0.871,3.083-7.549,13.095-10.456,13.331
			C560.021,90.399,557.283,87.436,557.283,87.436z"/>
		<path style="fill:#FCE8FF;" d="M534.118,123.407c0,0,7.98,10.285,9.607,11.272c1.631,0.987,13.094,5.395,15.886,5.857
			c2.793,0.462,11.055,2.547,12.333,1.324c1.278-1.223-7.449-2.668-10.067-4.176c-2.618-1.51-12.162-6.675-14.958-9.289
			c-2.795-2.614-6.233-7.845-8.384-7.843C536.384,120.554,532.31,119.163,534.118,123.407z"/>
	</g>
</g>
<g id="Swallow_x5F_1">
	<g>
		<path d="M502.757,646.301c0,0,22.891-3.573,32.558-2.393c9.666,1.182,25.779,2.188,37.31,2.183
			c11.532-0.006,18.991-1.877,23.229-5.101c4.237-3.226,20.347-5.099,24.755-4.764c4.41,0.338,13.568-0.516,15.266,3.385
			c1.698,3.899-8.64,17.302-13.726,20.018c-5.086,2.716-21.865,16.291-29.154,21.723c-7.289,5.432-37.799,33.259-41.696,37.842
			c0,0,15.764-14.765,20.511-15.953c4.748-1.19,19.837-7.134,28.313-13.583c8.475-6.449,26.443-21.043,31.357-27.32
			c4.914-6.279,7.283-14.081,10.843-17.135c3.56-3.056,21.695-19.853,21.695-19.853s20.184,5.754,26.966,4.055
			c6.781-1.7,26.106-16.635,26.106-16.635s0.598,6.698-0.587,9.158c-1.186,2.458-2.878,10.092-2.198,11.362
			c0.679,1.272,5.685,6.866,7.212,8.645c1.527,1.78,5.17-3.817,5.17-3.817s-2.201,5.595-1.777,7.292
			c0.425,1.696,2.294,6.273,2.294,6.273s3.132-9.074,3.386-10.938c0.252-1.865-2.449,16.111-2.024,19.248
			c0.426,3.138,2.039,6.696,2.039,6.696l1.86-9.835c0,0,1.534,16.192,2.64,20.602c1.105,4.408,3.925,40.104-0.053,54.436
			c0,0,1.697,2.458,2.631,4.746c0.934,2.288,3.288-32.899,5.74-43.245c2.454-10.347,8.024-52.829,7.595-67.498
			c-0.435-14.67,5.74-40.364,3.108-46.553c0,0-2.459,0.255-4.917,0.511c-2.46,0.256-5.176-3.388-5.176-3.388
			s3.215-15.943,1.768-21.709c-1.444-5.764,4.061-16.876,4.566-23.487c0.503-6.615,0.078-11.194,1.349-13.314
			c1.27-2.12,6.355-7.72,6.355-7.72s-5.596,2.123-8.648,2.888c-3.051,0.766-12.971,2.892-14.837,2.638
			c-1.865-0.254-15.093,0.179-18.904,5.1c-3.813,4.919-6.096,17.385-4.312,24.504c1.784,7.123-7.885,1.617-14.503-6.095
			c-6.618-7.713-22.736-23.135-35.967-27.027c-13.229-3.893-41.382-6.929-48.419-7.688c-7.039-0.759-46.896-7.352-59.698-6.666
			c-12.804,0.688-21.197,0.267-30.442-2.101c0,0,3.818,3.727,8.652,4.319c4.833,0.591,19.08,4.229,25.61,7.277
			c6.529,3.048,34.86,19.735,41.307,23.889c6.447,4.15,10.267,10.761,10.267,10.761s7.885-0.175,11.362-0.686
			c0,0-6.613,0.939-8.139,2.041c-1.525,1.103,5.769,5.763,8.483,7.966c2.714,2.202,9.418,10.253,11.198,13.051
			c1.783,2.797,3.311,4.576,4.921,3.813c1.611-0.764,9.411-1.278,10.006-0.346c0.594,0.932-5.339,6.023-7.458,6.194
			c-2.121,0.17-0.337,2.97,2.206,4.493c2.546,1.525,5.854,4.66,8.313,5.846c2.46,1.185,6.445-0.173,8.395,0.419
			c1.949,0.592-1.27,3.562-2.625,3.9c-1.357,0.342-1.526,2.545,2.12,2.714c3.646,0.167,7.716-0.852,9.242-0.514
			c1.525,0.338,5.596-0.683,5.596-0.683l2.291,1.949c0,0-9.066,11.282-16.271,15.611c-7.204,4.327-31.363,15.789-40.859,18.168
			c-9.494,2.379-22.976,4.678-34.251,5.701c-11.278,1.025-30.691,6.972-41.289,7.824
			C530.818,640.35,511.063,643.498,502.757,646.301z"/>
		
			<linearGradient id="SVGID_00000047044839906467218570000001193285168964172721_" gradientUnits="userSpaceOnUse" x1="743.0079" y1="553.2498" x2="727.626" y2="539.9655" gradientTransform="matrix(0.97 -0.2431 0.2431 0.97 -109.3221 187.3848)">
			<stop  offset="0" style="stop-color:#C73256"/>
			<stop  offset="1" style="stop-color:#970330"/>
		</linearGradient>
		<path style="fill:url(#SVGID_00000047044839906467218570000001193285168964172721_);" d="M749.595,519.565
			c0,0-1.781-1.357-3.222,0.087c-1.44,1.443-4.409,2.547-8.818,0.77c-4.409-1.779-7.799,3.395-11.104,6.025
			c-3.306,2.631-4.484,18.063-4.99,20.352c-0.509,2.29-7.037,0.684-7.037,0.684l4.074,7.628c0,0,2.205,1.609,4.07,1.864
			c1.865,0.252,6.36,2.37,9.159,2.028c2.799-0.34,6.529-1.274,9.494-3.822c2.119-1.818,3.846-0.781,4.661-0.04
			c-0.026-0.131-0.053-0.263-0.083-0.386c-1.262-5.037,2.78-14.154,4.159-20.789c-0.005-0.022-0.011-0.048-0.015-0.071
			C748.668,528.809,749.595,519.565,749.595,519.565z"/>
		<g>
			<path style="fill:#A896B8;" d="M752.063,582.621c-2.824,0.228-10.966,0.345-10.966,0.345s3.987-18.773,2.113-28.427
				c-8.443,1.95-25.516-6.653-27.345-7.057c-1.599-0.357-3.597-0.018-4.388,0.148c-0.975,3.264-8.919-1.729-14.612-8.363
				c-4.578-5.336-13.705-14.357-23.276-20.703c-12.615-5.149-37.495-7.117-38.576-2.239c-1.128,5.089,21.151,17.285,27.37,21.013
				c6.22,3.728-0.207,31.768,2.962,36.741c3.168,4.972,21.936,3.152,21.936,3.152s-4.517,10.742-7.116,13.795
				c-2.6,3.056-10.396,10.296-15.817,15.498c-5.424,5.204-24.743,27.825-22.256,30.087c1.825,1.657,8.983-1.123,12.68-2.726
				c4.872-4.485,9.246-8.536,9.246-8.536s20.184,5.754,26.966,4.055c6.781-1.7,26.106-16.635,26.106-16.635s0.006,0.06,0.013,0.148
				c2.296-1.718,10.555-8.804,10.555-8.804c4.532,18.088,13.341,1.461,13.911,7.566c0.568,6.103,2.501,25.321,5.777,21.138
				c3.277-4.183,6.534-41.042,6.534-41.042l0.305-2.243C754.087,586.207,753.635,582.493,752.063,582.621z"/>
			<path style="fill:#D1C2D9;" d="M686.517,627.881c0,0-12.892-5.42-11.876-7.117c1.017-1.695,21.805-26.126,28.357-36.418
				c6.552-10.292,13.212-23.976,15.474-24.543c2.262-0.567,20.691,3.946,21.938,6.998c1.246,3.049,2.838,18.989-14.676,37.315
				C708.22,622.442,686.517,627.881,686.517,627.881z"/>
			<path style="fill:#D1C2D9;" d="M695.411,565.581c0,0-11.638,7.241-14.242,4.529c-2.601-2.71-7.364-29.389-10.419-31.986
				c-3.054-2.599-16.512-12.2-15.609-14.348c0.902-2.149,16.729-4.194,18.427-3.178c1.696,1.018,16.854,13.556,21.944,20.45
				c5.091,6.893,13.233,10.618,13.233,10.618S699.48,562.64,695.411,565.581z"/>
			<path style="fill:#D1C2D9;" d="M742.002,585.622c0,0-3.897,6.021-3.642,8.48c0.256,2.459,5.349,9.833,5.857,11.867
				c0.51,2.035,3.824,13.818,3.824,13.818s2.361-20.773,3.291-25.692c0.93-4.918-0.768-8.819-0.768-8.819L742.002,585.622z"/>
			<path style="fill:#FCE8FF;" d="M720.56,605.052c0,0,9.231-8.617,13.251-15.357c4.021-6.739,5.291-19.282,4.958-21.282
				c-0.336-2.003-2.299-2.303-3.999-1.63c-1.698,0.671-5.659,14.862-8.284,20.205c-1.088,2.211-5.245,12.999-8.556,16.199
				c-3.313,3.203-18.982,17.733-18.982,17.733S712.718,611.577,720.56,605.052z"/>
		</g>
		
			<radialGradient id="SVGID_00000007422998575759003040000001033563904848226203_" cx="244.2871" cy="708.2832" r="40.3739" gradientTransform="matrix(1.1042 -0.2768 0.2768 1.1042 142.577 -154.9478)" gradientUnits="userSpaceOnUse">
			<stop  offset="0" style="stop-color:#353A4C"/>
			<stop  offset="1" style="stop-color:#14161D"/>
		</radialGradient>
		<path style="fill:url(#SVGID_00000007422998575759003040000001033563904848226203_);" d="M674.676,584.473c0,0,0,0-4.239,0.344
			c-4.237,0.341-9.5-6.271-13.062-11.864c-3.566-5.595-3.913-21.364-6.123-27.299c-2.207-5.935-19.003-18.305-22.227-22.541
			c-3.226-4.238-7.469-9.661-14.931-10.676c-7.462-1.014-39.346-7.438-50.54-8.958c-11.195-1.521-20.351-0.667-20.351-0.667
			l0.017,0.026c4.965,1.362,10.129,3.026,13.383,4.545c6.529,3.048,34.86,19.735,41.307,23.889
			c6.447,4.15,10.267,10.761,10.267,10.761s7.885-0.175,11.362-0.686c0,0-6.613,0.939-8.139,2.041
			c-1.525,1.103,5.769,5.763,8.483,7.966c2.714,2.202,9.418,10.253,11.198,13.051c1.783,2.797,3.311,4.576,4.921,3.813
			c1.611-0.764,9.411-1.278,10.006-0.346c0.594,0.932-5.339,6.023-7.458,6.194c-2.121,0.17-0.337,2.97,2.206,4.493
			c2.546,1.525,5.854,4.66,8.313,5.846c2.46,1.185,6.445-0.173,8.395,0.419c1.949,0.592-1.27,3.562-2.625,3.9
			c-1.357,0.342-1.526,2.545,2.12,2.714c3.646,0.167,7.716-0.852,9.242-0.514c1.525,0.338,5.596-0.683,5.596-0.683l2.291,1.949
			c0,0-0.399,0.493-1.069,1.288C675.919,592.112,674.676,584.473,674.676,584.473z"/>
		
			<radialGradient id="SVGID_00000043436805808188791180000016757581007603845785_" cx="318.8071" cy="815.5665" r="33.3284" gradientTransform="matrix(1.1042 -0.2768 0.2768 1.1042 142.577 -154.9478)" gradientUnits="userSpaceOnUse">
			<stop  offset="0" style="stop-color:#353A4C"/>
			<stop  offset="1" style="stop-color:#14161D"/>
		</radialGradient>
		<path style="fill:url(#SVGID_00000043436805808188791180000016757581007603845785_);" d="M743.18,666.06
			c1.235-14.245,1.569-24.419-0.242-27.811s-4.529-12.32-6.113-14.808c-1.586-2.486-5.768-3.84-8.596-5.535
			c-2.827-1.692-7.801-0.447-10.4,0.685c-0.203,0.088-0.44,0.222-0.69,0.378c-0.102,1.164-0.293,2.242-0.637,2.958
			c-1.186,2.458-2.878,10.092-2.198,11.362c0.679,1.272,5.685,6.866,7.212,8.645c1.527,1.78,5.17-3.817,5.17-3.817
			s-2.201,5.595-1.777,7.292c0.425,1.696,2.294,6.273,2.294,6.273s2.938-8.515,3.347-10.732c0.054-0.35,0.07-0.449,0.039-0.207
			c-0.008,0.056-0.025,0.14-0.039,0.207c-0.358,2.353-2.357,16.313-1.985,19.041c0.426,3.138,2.039,6.696,2.039,6.696l1.86-9.835
			c0,0,1.534,16.192,2.64,20.602c0.686,2.734,2.028,17.508,2.002,31.753l0.108,0.154C737.212,709.362,741.944,680.305,743.18,666.06
			z"/>
		
			<radialGradient id="SVGID_00000119829933474138430550000015860702593248872376_" cx="221.3545" cy="775.0245" r="23.7396" gradientTransform="matrix(1.1042 -0.2768 0.2768 1.1042 142.577 -154.9478)" gradientUnits="userSpaceOnUse">
			<stop  offset="0" style="stop-color:#353A4C"/>
			<stop  offset="1" style="stop-color:#14161D"/>
		</radialGradient>
		<path style="fill:url(#SVGID_00000119829933474138430550000015860702593248872376_);" d="M595.854,640.99
			c4.237-3.226,20.347-5.099,24.755-4.764c4.333,0.331,13.229-0.475,15.152,3.193c1.366-5.145,3.838-14.68,3.838-14.68
			s-22.382,6.571-28.26,8.045c-5.877,1.474-18.653,2.271-25.323,2.501c-6.669,0.231-11.077,1.815-20.685,3.744
			c-7.383,1.48-18.96,4.296-23.934,5.522c9.498,0.882,21.87,1.544,31.228,1.538C584.156,646.085,591.615,644.214,595.854,640.99z"/>
		
			<radialGradient id="SVGID_00000054970718606357266590000001450110522960146829_" cx="227.9028" cy="797.9561" r="14.9044" gradientTransform="matrix(1.1042 -0.2768 0.2768 1.1042 142.577 -154.9478)" gradientUnits="userSpaceOnUse">
			<stop  offset="0" style="stop-color:#353A4C"/>
			<stop  offset="1" style="stop-color:#14161D"/>
		</radialGradient>
		<path style="fill:url(#SVGID_00000054970718606357266590000001450110522960146829_);" d="M609.442,676.99
			c4.973-3.169,20.79-18.666,21.807-20.361c0.699-1.168,1.825-6.082,2.862-10.542c-2.96,5.299-8.604,11.751-11.963,13.543
			c-5.086,2.716-21.865,16.291-29.154,21.723c-3.701,2.757-13.383,11.284-22.531,19.615c4.045-1.571,13.025-5.443,16.943-8.364
			C592.266,688.983,604.471,680.159,609.442,676.99z"/>
	</g>
</g>
</svg>
