<?xml version="1.0" encoding="utf-8"?>
<!-- Generator: Adobe Illustrator 27.5.0, SVG Export Plug-In . SVG Version: 6.00 Build 0)  -->
<svg version="1.1" xmlns="http://www.w3.org/2000/svg" xmlns:xlink="http://www.w3.org/1999/xlink" x="0px" y="0px"
	 viewBox="0 0 750 500" style="enable-background:new 0 0 750 500;" xml:space="preserve">
<g id="BACKGROUND">
	<rect style="fill:#FFFFFF;" width="750" height="500"/>
</g>
<g id="OBJECTS">
	<path style="fill:#09203F;" d="M539.586,126.628c0.17,0.339,4.96,0.828,6.218,1.696c0.233,0.161-2.197,0.294-2.551,0.647
		c-0.576,0.575-0.555,1.203,1.142,1.595c1.11,0.256,7.344,0.019,7.344,0.019s6.076,3.815,8.196,4.381
		c2.12,0.565,18.37-0.424,21.055-0.989c2.685-0.565,8.055-6.783,8.055-6.783s0,3.957-0.565,4.522
		c-0.565,0.565-18.936,18.936-18.936,18.936s-11.729-0.707-12.153-0.141c-0.424,0.565-2.685,8.196-2.12,8.903
		c0.565,0.706,1.837,0,1.837,0s0.283,1.696,1.13,2.12c0.848,0.424,2.12-0.424,2.12-0.424s0.989,1.13,1.696,0.989
		c0.706-0.141,3.674-3.815,3.674-3.815s2.685,1.696,6.501,0.989c3.815-0.707,13.142-8.337,16.675-12.153
		c3.533-3.815,10.881-10.174,10.881-10.174s1.695,0.141,2.685-0.565c0.989-0.707,1.272-10.175,1.272-10.175l11.305,6.642
		c0,0-3.957,8.903-3.25,11.164c0.706,2.261,13.707,28.686,13.707,28.686s-17.664,7.49-17.523,8.337
		c0.141,0.848,2.685,0.424,2.685,0.424s-0.565,2.402,0.424,2.826c0.989,0.424,5.37-1.413,5.37-1.413s0.141,1.696,1.13,2.402
		c0.989,0.707,4.664-3.25,7.772-4.522c1.952-0.799,5.853-1.764,8.486-2.372c0.062,0.231,0.144,0.43,0.275,0.535
		c0.707,0.565,12.012,0.848,13.284-0.707c1.272-1.554,0.989-3.815,2.685-9.327c1.696-5.511,4.125-6.446,3.758-8.285
		c-0.368-1.839-17.654-20.229-17.654-20.229l13.241-9.931c0,0,4.046,7.724,8.091,16.551c4.046,8.827,8.489,27.731,4.811,41.708
		c-4.434,16.849-20.829,22.811-28.185,22.811c-7.356,0-10.832-9.717-10.832-9.717s-6.988-2.575-7.356,4.046
		c-0.368,6.62,15.447,19.493,34.941,8.092c19.494-11.402,26.849-33.47,25.378-50.389c-1.471-16.919-9.93-44.504-30.159-59.216
		c-20.229-14.712-55.538-17.654-55.538-17.654c-0.593-1.662-1.221-3.158-1.893-4.504c0.309-2.508,0.522-5.575-0.215-5.984
		c-0.78-0.434-1.825,0.728-2.517,1.691c-2.591-3.147-5.806-4.807-10.06-5.224c-5.793-0.568-10.392,2.421-11.977,3.617
		c-0.545-0.698-1.242-1.355-1.872-1.215c-0.951,0.211-1.19,3.743-0.423,6.515c0.023,1.968,0.988,4.649,0.988,4.649
		s-1.413,3.25-1.272,5.37c0.141,2.12,1.13,2.685,1.413,3.533c0.283,0.848,1.555,0.848,1.555,0.848s0,2.12,0.989,3.25
		c0.708,0.81,1.978,2.261,5.511,1.413c1.13,3.25,7.348,9.327,7.348,9.327l-4.663,14.131l-15.403,1.413c0,0-5.37-0.848-6.783-1.413
		c-1.413-0.565-9.185-3.674-9.609-3.25c-0.424,0.424-2.544,1.272-2.544,1.837S539.304,126.063,539.586,126.628z M633.418,159.837
		l10.881,3.674l-3.816,10.174c0,0-2.637,0.294-4.553,0.654L633.418,159.837z"/>
	<path style="fill:#09203F;" d="M477.831,75.064c-10.631-6.901-28.184-3.89-34.965,11.057c-6.78,14.947-16.295,34.281-29.122,40.49
		c-8.501,4.115-25.847,1.721-43.121,1.845c-17.274,0.124-31.684,6.106-31.684,6.106s-1.111-3.272-4.698-7.57
		c-3.588-4.297-12.175-5.918-19.128-3.524c-6.953,2.394-11.357,11.228-11.394,12.921c-0.037,1.693,1.109,3.352,1.109,3.352
		s-0.429,2.803-0.039,4.653c0.39,1.85,2.768,2.206,3.465,2.948c0.697,0.742,0.132,4.732,0.504,5.906
		c0.371,1.174,1.618,2.451,2.443,2.968c0.824,0.517,4.676,3.108,7.366,2.763c2.69-0.345,6.63-4.235,6.63-4.235l4.863,0.134
		l-4.106,27.01l-31.906,24.845c0,0-8.911,2.043-9.975,2.613c-1.064,0.57-5.282,4.197-5.282,4.197s1.379,1.041,3.544,1.251
		c2.165,0.209,13.342,2.433,17.605,0.424c4.263-2.009,39.016-20.966,39.472-23.948c0.457-2.982,3.081-26.211,3.081-26.211
		s7.832,9.769,10.464,16.984c2.631,7.215,8.015,25.961,8.015,25.961l-13.674,3.352c0,0-3.791,2.806-2.661,4.574
		c1.129,1.768,15.505,1.006,20.54,0.865c1.279-0.036,2.337-0.415,3.207-0.959l12.628,0.876c0,0,8.901-3.489,8.84-5.646
		c-0.06-2.158-5.551-31.159-5.551-31.159l8.01-9.583c0,0,1.582,17.953,7.817,22.097c6.235,4.145,33.949,4.089,33.949,4.089
		l4.354,14.782c0,0-8.516,3.691-9.935,4.451c-1.418,0.76-0.928,5.425-0.928,5.425l11.346-0.356c0,0,8.441-5.587,9.11-7.405
		c0.669-1.818-1.603-8.21-2.144-14.674c-0.541-6.464,0.817-9.277-1.422-12.094c-2.238-2.817-10.866-3.019-16.99-3.208
		c-6.124-0.188-16.335-3.01-16.335-3.01s-0.781-21.401-0.603-27.885c0.178-6.484-1.101-9.769-1.101-9.769s20.546-2.754,31.7-28.621
		c9.656-22.394,13.474-33.031,24.244-34.053c9.069-0.86,16.122,10.167,12.382,18.01c-2.938,6.162-12.377,7.905-12.528,2.51
		c-0.151-5.395-7.085-8.8-8.282-0.128c-1.197,8.672,13.112,18.35,24.318,7.238C492.471,96.61,488.462,81.965,477.831,75.064z
		 M371.582,209.397l-3.244-21.128l11.333,19.119L371.582,209.397z"/>
	<path style="fill:#09203F;" d="M130.765,422.622c0.251-0.752,12.278-2.255,12.278-2.255s0.122,4.087,0.446,9.137
		c-4.72-0.221-8.213-0.367-8.213-0.367S130.514,423.374,130.765,422.622z M217.217,395.559l-49.37-22.55c0,0-3.51-5.51-4.26-11.53
		c-0.75-6.01-2-19.79-6.26-24.3c5.76-2.51,6.51-10.78,6.51-10.78s3.51-1.5,3.76-2.5s1.51-6.27,1.51-6.27s4.26-5.76,3.75-7.01
		c-0.5-1.26-10.52-0.5-10.52-0.5s-7.77-8.02-14.28-8.27c-6.52-0.25-13.78,7.51-13.78,7.51s-9.78-2-11.03-0.75
		c-1.25,1.26-0.25,10.03,2.01,11.28c2.25,1.25,4.51,2.5,4.51,2.5l-1.26,5.27c0,0-8.52,3.25-20.29,9.27
		c-11.78,6.01-21.55,20.79-21.55,29.56c0,4.5-0.59,13.08-0.49,21.83c-0.95,7.96-1.88,19.7-0.51,28.04
		c2.2,13.45,14.28,32.57,34.32,33.83c20.05,1.25,15.04-6.27,11.03-6.52c-4.01-0.25-13.78,1.5-21.05-2.25
		c-5.97-3.09-15.3-13.28-18.04-26.54c5.13,7.98,12.24,12.62,16.29,13.26c4.76,0.75,6.51,2.5,6.51,2.5s4.26,7.27,7.02,7.52
		c2.75,0.25,16.03,3.51,16.03,3.51l6.82-0.49c0.5,3.5,1.14,6.26,1.95,7c2.76,2.51,11.53,2.76,11.53,1.5c0-1.25,0.5-5.26,0.5-5.26
		s3.02-1.67,3.19-4.66l10.34-0.85c0,0-0.75-7.02-3.76-7.77c-0.94-0.23-4.55-0.52-9.06-0.8c-0.43-3.77-0.17-7.67,0.29-9.97
		c0.76-3.76,7.52-11.78,7.77-17.79c0.25-6.02-0.25-10.53-0.25-10.53s12.28,5.77,20.55,6.77c4.73,0.57,10.02,0.5,10.02,0.5
		s4.01,3.01,7.77,3.76c0.67,0.13,1.46,0.19,2.32,0.2l0.6-1.2l-1.57-1.84l4.46,0.53l1.18,2.15c2.62-0.37,4.9-0.96,5.29-1.35
		C218.467,400.819,217.217,395.559,217.217,395.559z"/>
	<path style="fill:#09203F;" d="M423.788,408.313l20.913,13.231l3.58,0.746c0,0,3.249-0.746,4.53,1.388
		c1.28,2.134,2.988,14.085,3.414,16.219c0.427,2.134-7.683,6.829-7.683,6.829l-8.963-0.854l0.427-4.268l6.829-3.841l-1.179-5.235
		c0,0-21.868-7.142-28.27-11.41c-6.402-4.268-12.804-20.06-12.804-20.06l-10.67,5.549c0,0-1.28,16.645,0,23.901
		c1.28,7.256,2.134,12.804,2.134,12.804s-15.792,6.829-17.499,7.256c-1.707,0.427-8.109-0.854-8.109-0.854s-0.251-2.297-0.123-3.196
		c0.128-0.898,5.255-3.752,5.255-3.752s-0.507-1.38-0.379-1.893c0.128-0.513,3.208-1.155,4.876-1.283
		c1.668-0.128,5.646-0.385,5.646-0.385s-2.181-10.008-4.363-15.911c-2.181-5.902-4.619-17.322-2.31-22.711
		s10.906-18.99,10.906-18.99s-10.906,3.978-16.424,4.106s-10.393,0.257-10.393,0.257s4.491,6.031,5.774,8.725
		c1.283,2.694,0.257,11.676,0,17.964c-0.257,6.287-2.053,25.277-1.668,27.202c0.385,1.925,0.642,4.234-2.438,5.517
		c-3.079,1.283-7.754,4.612-8.653,4.228c-0.898-0.385-1.869-0.891-1.869-0.891s-5.902,0.642-7.057-0.257
		c-1.155-0.898-0.128-2.951,4.876-5.646c5.004-2.695,7.314-4.491,7.314-4.491s-0.77-13.986-1.54-17.322
		c-0.77-3.336-10.65-27.33-10.65-27.33s-3.721,15.654-5.389,17.579c-1.668,1.925-13.729,14.371-22.069,20.017
		s-11.163,5.004-11.933,4.876c-0.77-0.128-1.668,2.181-2.695,1.796c-1.026-0.385-1.796-3.208-1.796-3.208s-6.544-0.513-7.057,0.385
		c-0.513,0.898-2.053,1.411-2.053,1.411s-1.411-2.438-0.513-4.747c0.898-2.31,4.491-2.823,8.084-2.823
		c3.593,0,9.495-0.77,9.495-0.77s10.906-16.552,13.986-19.503c3.079-2.951,5.902-5.517,5.902-5.517l-0.257-21.813
		c0,0-5.517,0-8.854-0.385c-3.336-0.385-5.774-2.951-5.774-2.951s-1.796,1.283-3.208,0.641c-1.411-0.641-3.464-3.079-3.721-3.978
		c-0.257-0.898-0.385-4.106-0.257-5.902c0.128-1.796,0.642-4.747,0-5.261l-1.54,0.898c0,0-2.053-3.208-1.925-6.287
		c0.128-3.079,4.106-10.008,13.601-10.65c9.495-0.642,12.959,3.079,12.959,3.079s5.517-1.925,10.778-1.283
		c5.261,0.642,11.933,2.181,20.017,2.31c8.084,0.128,25.406-1.54,33.874,0.513c8.469,2.053,14.242,4.106,14.242,4.106
		s1.54-23.738-31.564-32.334c-33.104-8.597-53.506,4.876-57.227,4.106c-3.721-0.77-5.902-4.619-2.31-8.084
		c3.593-3.464,38.493-11.548,65.824-2.31c27.33,9.238,36.569,28.228,36.697,41.573c3.978,6.287,6.287,9.367,4.363,17.707
		C424.975,385.185,423.788,408.313,423.788,408.313z"/>
	<path style="fill:#09203F;" d="M682.201,366.02c-1.551-1.938-0.194-8.527-1.938-12.791c-1.744-4.264-5.427-7.946-5.427-7.946
		s2.519-12.016,0.194-17.636s-10.078-15.504-10.078-15.504s1.163-1.744-1.163-3.295c-2.326-1.55-11.628-6.396-18.799-7.752
		c-7.171-1.357-9.884-2.52-12.21-4.845s-8.528-7.752-19.962-7.946c-11.435-0.194-19.575,6.202-19.575,6.202
		s-4.651-2.519-7.946-4.651c-3.295-2.132-7.171-12.597-12.404-15.311c-5.233-2.713-17.637-2.907-21.319,0.969
		c-3.682,3.876-5.814,12.791-6.589,14.729c-0.775,1.938-3.101,6.589-4.264,7.752c-1.163,1.163-3.682,4.651-3.295,7.171
		c0.388,2.52,2.132,6.589,2.132,6.589s-3.294,4.264-3.488,7.752c-0.194,3.488,1.163,10.078,1.163,10.078l3.682,0.775
		c0,0-2.907,3.295-2.132,5.427c0.775,2.132,4.651,6.589,4.651,6.589h6.783c0,0-1.55,8.527,2.713,16.861
		c4.264,8.334,3.682,18.218,3.682,18.218s-4.845,4.845-9.109,10.078c-4.264,5.233-9.109,21.125-10.272,28.49
		c-1.163,7.365-3.101,13.373-1.938,17.055c1.163,3.682,6.253,11.663,7.222,12.05c0.969,0.388,7.895,2.098,7.895,2.098
		s1.744,0.194,1.744-1.163c0-1.357-0.715-5.922-0.715-5.922s-1.805-2.605-2.58-3.574c-0.775-0.969-0.969-2.519-0.969-2.519
		s4.651,3.101,5.62,2.907c0.969-0.194,1.357-3.489,1.357-3.489l-6.396-5.233c0,0,13.954-5.814,21.125-16.474
		c7.171-10.659,9.69-23.451,9.69-23.451l16.28,11.047c0,0,1.55,14.535,5.039,21.9c3.489,7.365,3.101,13.566,3.101,13.566
		s-7.946,4.07-9.69,4.651c-1.744,0.581-5.815,1.744-6.008,2.907c-0.194,1.163,0.581,3.489,0.581,3.489l11.047-0.581
		c0,0-0.194,1.938,0.388,2.519c0.582,0.581,3.682,0.388,3.682,0.388l7.365-3.489c0,0,8.334,0,9.884-1.357
		c1.551-1.357,4.07-11.047,4.651-16.28c0.582-5.233-3.489-22.094-3.489-22.094l12.033-15.989l9.057,14.777
		c0,0,0.477,7.15,3.813,13.347c3.337,6.197,4.767,16.684,4.767,16.684s-4.281,3.741-5.444,4.323
		c-1.163,0.581-8.721,2.713-9.303,4.458c-0.581,1.744-0.581,3.489-0.581,3.489l6.977-0.194c0,0-0.194,3.682,0.582,4.07
		c0.775,0.388,2.326,0.388,2.326,0.388l1.551-2.52c0,0-0.194,2.713,0.775,3.101c0.969,0.388,2.326,0,2.326,0l0.775-2.907
		c0,0,0.969,2.907,2.132,2.907c1.163,0,2.907-0.388,2.907-0.388l3.101-2.907c0,0,9.109,0,9.884-1.55
		c0.775-1.551,0.581-15.698,0.969-20.35c0.388-4.651,2.326-13.179,1.357-14.342c-0.969-1.163-3.876-9.109-3.876-10.466
		c0-1.357,1.744-17.249,1.744-17.249s0.194-8.334,0.387-10.853c0.023-0.303,0.012-1.01-0.037-2.011
		c1.986,2.764,3.331,4.725,3.331,4.725s2.713,6.202,4.264,6.008c1.55-0.194,1.55-1.744,1.55-1.744s2.713,1.744,3.682,1.357
		c0.969-0.388,0-2.907,0-2.907s2.519-0.194,3.295-0.969c0.775-0.775-0.969-3.101-0.969-3.101s2.907-0.194,3.295-1.357
		C689.178,371.641,683.752,367.958,682.201,366.02z M621.124,333.868c-0.582-0.969-3.98-4.975-3.98-4.975l17.413-2.985
		c0,0,2.622,3.683,6.127,8.423C630.88,334.122,621.436,334.387,621.124,333.868z"/>
	<path style="fill:#09203F;" d="M254.796,54.075c0,0-7.085-12.294-8.712-13.108c-1.627-0.813-8.743,0.524-11.589,2.558
		c-2.847,2.034-13.979,16.981-20.08,22.675c-6.101,5.694-24.811,24.81-24.811,24.81s-7.321,0.407-10.168,1.627
		s-13.422,6.914-13.422,6.914s-8.135-6.101-14.642-6.101c-6.508,0-12.202,3.254-15.049,6.101c-7.321,0-45.96-21.15-50.434-34.165
		C81.415,52.371,78.161,44.644,74.5,43.423c-3.661-1.22-15.456,0.813-17.489,2.034c-2.034,1.22-5.299,7.829-5.694,8.948
		c-0.93,2.635,0.317,7.184,1.944,6.37c1.627-0.813,5.46-4.526,7.831-4.957c2.371-0.431,0.359,2.299-0.288,3.52
		c-0.907,1.714,1.737,2.342,2.73,2.012c1.078-0.359,3.305-2.083,3.305-2.083s2.009-2.966,2.371-2.514
		c1.483,1.851,4.478,8.634,4.478,15.549S74.5,94.264,75.72,95.485c1.22,1.22,4.881,0.407,4.881,0.407s0.814,3.66,9.762,11.795
		c0.034,0.031,0.069,0.061,0.104,0.092c2.846,4.775,6.566,9.031,10.969,12.426c-0.205-1.154-0.409-2.308-0.613-3.462
		c1.468,2.964,3.675,5.558,6.365,7.482c0.418-1.021,0.382-2.219-0.095-3.214c2.24,3.533,4.79,7.276,8.011,9.818
		c0.454,4.652,0.552,10.005,0.332,13.741c-0.407,6.914-1.575,30.712-1.575,30.712s-11.046,6.986-8.925,17.062
		c1.192,5.663,18.328,28.292,18.328,28.292l-7.932,5.048l-1.622,3.245l7.157,1.184c0,0,2.104,0.438,4.544,0.032
		c2.44-0.407,3.741-1.168,5.775-1.575c0.436-0.087-2.011,2.121-2.513,2.523c-0.901,0.721,0.721,1.803,0.721,1.803
		s8.122-1.57,10.047-4.453c0.084-0.016,0.165-0.033,0.229-0.054c1.22-0.407-0.402-5.764-1.623-7.391
		c-1.22-1.627-5.803-15.572-6.309-16.585c-0.36-0.721,12.619-10.456,12.619-10.456s1.999,0.538,5.408,4.326
		c1.623,1.803,6.081,15.968,6.081,15.968l-2.568,7.228c0,0-0.814,4.067,0.814,5.287c1.587,1.191,8.312,1.308,8.638,1.313
		l4.702,1.752c3.966,0,3.786-1.622,3.786-1.622l-2.37-1.58c4.301,0.428,12.623,1.044,12.623,1.044s2.098-0.269,1.285-2.709
		c-0.813-2.44-9.012-3.798-9.012-3.798l-4.474-5.694c0,0,5.694-7.728,6.914-15.049c1.22-7.321,3.661-23.59,0.407-26.437
		c-3.253-2.847-6.454-0.94-6.454-0.94s3.2-10.042,4.42-14.109c0.851-2.837,2.294-16.153,3.091-23.955
		c0.485-0.241,0.952-0.545,1.361-0.864c2.779-2.165,5.209-4.775,7.171-7.701c-0.936,1.638-1.316,3.587-1.066,5.456
		c4.042-2.746,7.296-6.641,9.277-11.108c-0.401,1.067-0.537,2.232-0.392,3.362c5.318-4.158,8.318-10.247,10.34-16.804
		c0.618,0.274,4.513,1.96,6.009,1.586c1.627-0.407,3.661-7.728,3.661-7.728s4.474-2.034,5.694-2.44
		c1.22-0.407,3.254-9.762,4.474-9.762s7.728-12.202,7.728-19.523s5.547-16.098,5.547-16.098s6.032,3.463,7.193,3.836
		c1.782,0.572,3.757-0.24,3.677-0.879c-0.046-0.366-3.717-2.929-3.757-3.757c-0.015-0.315,0.532-0.927,1.131-1.412
		c0.489,0.934,0.985,1.965,1.107,2.291c0.182,0.485,1.189,0.784,1.736,0.657c0.108,0.498,0.223,0.857,0.342,0.942
		c0.559,0.4,1.998-0.16,1.998-0.16s0.101-0.518,0.228-1.19c0.876,0.616,1.711,1.06,2.33,1.03
		C255.115,54.635,254.796,54.075,254.796,54.075z"/>
</g>
</svg>
